<?xml version="1.0" encoding="UTF-8"?>
<svg width="250px" height="288px" viewBox="0 0 250 288" version="1.1" xmlns="http://www.w3.org/2000/svg" xmlns:xlink="http://www.w3.org/1999/xlink">
    <!-- Generator: Sketch 59.1 (86144) - https://sketch.com -->
    <title>IL/ Offline-after start-big</title>
    <desc>Created with Sketch.</desc>
    <defs>
        <rect id="path-1" x="0" y="0" width="146.737859" height="124.239198" rx="11"></rect>
        <path d="M146.740108,12.9543333 L146.737859,113.239198 C146.737859,119.31433 141.812991,124.239198 135.737859,124.239198 L11,124.239198 C4.92486775,124.239198 -1.06759003e-13,119.31433 -1.05726625e-13,113.239198 L-0.00205838175,95.8594201 C21.9032355,93.5391023 46.5225173,86.4294669 71.0005988,74.4646503 C104.928565,57.8806455 131.689366,35.3397999 146.740108,12.9543333 Z" id="path-3"></path>
        <rect id="path-5" x="0" y="0" width="146.737859" height="124.239198" rx="11"></rect>
    </defs>
    <g id="IL/-Offline-after-start-big" stroke="none" stroke-width="1" fill="none" fill-rule="evenodd">
        <rect fill="#FFFFFF" fill-opacity="0" x="0" y="0" width="250" height="288"></rect>
        <g id="Group-4">
            <g id="il">
                <g id="Group-3" transform="translate(11.000000, 50.000000)">
                    <path d="M57.5127921,57.16945 L87.2256547,6.0324234 C87.6111313,5.36900271 88.4614306,5.14368452 89.1248512,5.52916113 C89.1271346,5.53048786 89.1294142,5.53182109 89.1316899,5.53316082 C89.8020678,5.92781042 90.0366459,6.78428367 89.660921,7.46544863 L61.0843517,59.2729311 C60.5407315,60.2584795 59.3010956,60.616733 58.3155473,60.0731129 C58.29889,60.0639249 58.2823622,60.0545042 58.2659688,60.0448534 C57.2668174,59.4566557 56.9303017,58.1719393 57.5127921,57.16945 Z" id="Rectangle-Copy-11" fill="#4DA2B2"></path>
                    <path d="M51.954884,60.8893123 L31.2957398,21.945913 C30.9330262,21.262182 31.1665885,20.4142183 31.8282393,20.0126372 C32.4607052,19.6287696 33.2846062,19.8302982 33.6684738,20.462764 C33.6751383,20.4737444 33.6816444,20.4848201 33.6879903,20.4959876 L55.4381341,58.7721611 C56.0071063,59.7734455 55.6764539,61.045672 54.6919476,61.6432064 C53.7703907,62.2025344 52.5698964,61.9088899 52.0105684,60.987333 C51.9910671,60.9552024 51.9724979,60.9225152 51.954884,60.8893123 Z" id="Rectangle-Copy-11" fill="#4DA2B2"></path>
                    <g id="Group-2" transform="translate(0.000000, 53.067568)">
                        <path d="M56.442446,0 C68.5780736,0 78.5236314,4.17878365 79.4292038,9.4836776 L190.791367,9.48371448 C207.475134,9.48371448 221,22.9293926 221,39.515477 L221,129.610765 C221,142.244903 213.152407,153.056869 202.038798,157.491912 C202.142587,157.97867 202.196951,158.484659 202.196951,159.003347 C202.196951,162.934861 199.073572,166.136871 195.17281,166.263379 L194.933037,166.267261 L182.475,166.266714 L183.999375,179.932746 C184.210203,181.822785 182.907307,183.548125 181.031728,183.862607 C179.138812,184.179996 177.316639,183.000124 176.831703,181.143055 L173.02713,166.573398 C173.000496,166.471401 172.977462,166.36931 172.957951,166.26726 L47.2928576,166.26726 L47.2609388,166.420349 L47.2609388,166.420349 L47.2236778,166.573398 L43.4191052,181.143055 C42.934169,183.000124 41.1119966,184.179996 39.2190802,183.862607 C37.4081762,183.55897 36.1311407,181.940097 36.2349843,180.127629 L36.251433,179.932746 L37.775,166.266714 L29.5229076,166.267261 C25.5913932,166.267261 22.3893833,163.143882 22.2628755,159.24312 L22.2589928,159.003347 C22.2589928,158.865898 22.2628104,158.72934 22.2703453,158.593775 C9.43796035,155.129951 0,143.466082 0,129.610765 L0,39.515477 C0,22.9293926 13.5248657,9.48371448 30.2086331,9.48371448 L33.4556883,9.4836776 C34.3612607,4.17878365 44.3068185,0 56.442446,0 Z M190.791367,12.6449526 L76.0574978,12.645194 C67.5095843,15.1578478 45.3747406,15.1578208 36.827119,12.645113 L30.2086331,12.6449526 C15.2810518,12.6449526 3.17985612,24.6752962 3.17985612,39.515477 L3.17985612,129.610765 C3.17985612,142.016363 11.636253,152.458429 23.1310263,155.550663 C24.3172417,153.358823 26.5970461,151.846582 29.2385397,151.744896 L29.5229076,151.739432 L194.933037,151.739432 C197.293658,151.739432 199.391276,152.865482 200.718051,154.609742 C210.73397,150.677681 217.820144,140.96691 217.820144,129.610765 L217.820144,39.515477 C217.820144,24.6752962 205.718948,12.6449526 190.791367,12.6449526 Z" id="Combined-Shape" fill="#1A7080"></path>
                        <path d="M30.2086331,12.6449526 C15.2810518,12.6449526 3.17985612,24.6752962 3.17985612,39.515477 L3.17985612,129.610765 C3.17985612,144.450945 15.2810518,156.481289 30.2086331,156.481289 L190.791367,156.481289 C205.718948,156.481289 217.820144,144.450945 217.820144,129.610765 L217.820144,39.515477 C217.820144,24.6752962 205.718948,12.6449526 190.791367,12.6449526 L30.2086331,12.6449526 Z" id="Path" fill="#4DA2B2" fill-rule="nonzero"></path>
                    </g>
                    <rect id="Rectangle" stroke="#1A7080" stroke-width="2" fill="#37616A" transform="translate(189.543796, 136.689189) scale(-1, 1) translate(-189.543796, -136.689189) " x="173.605839" y="74.972973" width="31.8759124" height="123.432432" rx="6"></rect>
                    <ellipse id="Oval" fill="#4DA2B2" cx="189.543796" cy="95.6824324" rx="10.4854015" ry="10.4527027"></ellipse>
                    <ellipse id="Oval-Copy" fill="#4DA2B2" cx="189.543796" cy="126.236486" rx="10.4854015" ry="10.4527027"></ellipse>
                    <path d="M179.649297,122.670225 L199.115029,122.735193 C200.520017,122.739882 201.657822,123.877687 201.662511,125.282676 C201.66716,126.675602 200.541739,127.808561 199.148812,127.81321 C199.1432,127.813229 199.137589,127.813229 199.131977,127.81321 L179.666245,127.748242 C178.261257,127.743553 177.123452,126.605749 177.118763,125.20076 C177.114114,123.807833 178.239535,122.674874 179.632462,122.670225 C179.638074,122.670207 179.643686,122.670207 179.649297,122.670225 Z" id="Rectangle" fill="#1A7080" transform="translate(189.390637, 125.241718) rotate(45.000000) translate(-189.390637, -125.241718) "></path>
                    <path d="M179.651937,92.0030629 L199.1671,92.0593756 C200.56938,92.063422 201.705151,93.1991817 201.709211,94.6014613 C201.71324,95.9933075 200.588193,97.1248886 199.196347,97.1289183 C199.19149,97.1289324 199.186634,97.1289324 199.181778,97.1289184 L179.666615,97.0726056 C178.264335,97.0685592 177.128565,95.9327996 177.124505,94.53052 C177.120475,93.1386737 178.245522,92.0070927 179.637369,92.0030629 C179.642225,92.0030489 179.647081,92.0030489 179.651937,92.0030629 Z" id="Rectangle-Copy-12" fill="#1A7080" transform="translate(189.416858, 94.565991) scale(-1, 1) rotate(60.000000) translate(-189.416858, -94.565991) "></path>
                    <rect id="Rectangle-Copy" fill="#4DA2B2" x="179.058394" y="147.945946" width="19.3576642" height="1.60810811" rx="0.804054054"></rect>
                    <rect id="Rectangle-Copy-2" fill="#4DA2B2" x="179.058394" y="154.378378" width="19.3576642" height="1.60810811" rx="0.804054054"></rect>
                    <rect id="Rectangle-Copy-4" fill="#4DA2B2" x="179.058394" y="164.027027" width="19.3576642" height="1.60810811" rx="0.804054054"></rect>
                    <rect id="Rectangle-Copy-5" fill="#4DA2B2" x="179.058394" y="173.675676" width="19.3576642" height="1.60810811" rx="0.804054054"></rect>
                    <rect id="Rectangle-Copy-6" fill="#4DA2B2" x="179.058394" y="181.716216" width="19.3576642" height="1.60810811" rx="0.804054054"></rect>
                    <rect id="Rectangle-Copy-7" fill="#4DA2B2" x="179.058394" y="189.756757" width="19.3576642" height="1.60810811" rx="0.804054054"></rect>
                    <ellipse id="Oval" fill="#1A7080" cx="91.1423358" cy="4.02027027" rx="4.03284672" ry="4.02027027"></ellipse>
                    <ellipse id="Oval-Copy-2" fill="#1A7080" cx="31.4562044" cy="20.1013514" rx="4.03284672" ry="4.02027027"></ellipse>
                    <g id="Group" transform="translate(16.131387, 73.972973)">
                        <mask id="mask-2" fill="white">
                            <use xlink:href="#path-1"></use>
                        </mask>
                        <use id="Mask" fill="#000000" opacity="0.780436198" xlink:href="#path-1"></use>
                        <g opacity="0.326334635" mask="url(#mask-2)">
                            <g transform="translate(3.191209, 0.000000)">
                                <rect id="Rectangle" fill="#333333" x="100.65495" y="0.0822322323" width="20.5534985" height="123.238705"></rect>
                                <rect id="Rectangle-Copy-18" fill="#37616A" x="121.208448" y="0.0822322323" width="20.5534985" height="123.238705"></rect>
                                <rect id="Rectangle-Copy-13" fill="#37616A" x="80.1014514" y="0.0822322323" width="20.5534985" height="123.238705"></rect>
                                <rect id="Rectangle-Copy-14" fill="#333333" x="59.5479529" y="0.0822322323" width="20.5534985" height="123.238705"></rect>
                                <rect id="Rectangle-Copy-15" fill="#37616A" x="40.279048" y="0.0822322323" width="20.5534985" height="123.238705"></rect>
                                <rect id="Rectangle-Copy-16" fill="#333333" x="19.7255495" y="0.0822322323" width="20.5534985" height="123.238705"></rect>
                                <rect id="Rectangle-Copy-17" fill="#37616A" x="2.48689958e-14" y="-1.77635684e-13" width="20.5534985" height="123.238705"></rect>
                            </g>
                        </g>
                        <mask id="mask-4" fill="white">
                            <use xlink:href="#path-3"></use>
                        </mask>
                        <use id="Combined-Shape" fill="#FFFFFF" opacity="0.0805580357" xlink:href="#path-3"></use>
                        <mask id="mask-6" fill="white">
                            <use xlink:href="#path-5"></use>
                        </mask>
                        <rect stroke="#1A7080" stroke-width="2" x="1" y="1" width="144.737859" height="122.239198" rx="11"></rect>
                    </g>
                </g>
                <g id="Oval-Copy-5" opacity="0.3" transform="translate(64.000000, 28.000000)" fill="#01ACCD">
                    <path d="M5.18820862,10.4478764 C8.05357711,10.4478764 10.3764172,8.10903964 10.3764172,5.22393822 C10.3764172,2.33883681 8.05357711,-5.32907052e-15 5.18820862,-5.32907052e-15 C2.32284012,-5.32907052e-15 1.07647224e-12,2.33883681 1.07647224e-12,5.22393822 C1.07647224e-12,8.10903964 2.32284012,10.4478764 5.18820862,10.4478764 Z M5.18820862,7.30501931 C4.06343897,7.30501931 3.14285714,6.37809771 3.14285714,5.22393822 C3.14285714,4.06977874 4.06343897,3.14285714 5.18820862,3.14285714 C6.31297826,3.14285714 7.23356009,4.06977874 7.23356009,5.22393822 C7.23356009,6.37809771 6.31297826,7.30501931 5.18820862,7.30501931 Z" id="Oval-Copy-3"></path>
                </g>
                <g id="Path-Copy-4" opacity="0.9" transform="translate(152.000000, 76.000000)" fill="#01ACCD">
                    <polygon id="Path-Copy-2" points="8.25 4.0625 12 4.0625 12 8.9375 8.25 8.9375 8.25 13 3.75 13 3.75 8.9375 0 8.9375 0 4.0625 3.75 4.0625 3.75 0 8.25 0"></polygon>
                </g>
                <g id="Oval-2" opacity="0.5" transform="translate(195.000000, 34.000000)" fill="#01ACCD">
                    <path d="M5.18820862,10.4478764 C8.05357711,10.4478764 10.3764172,8.10903964 10.3764172,5.22393822 C10.3764172,2.33883681 8.05357711,0 5.18820862,0 C2.32284012,0 1.08002496e-12,2.33883681 1.08002496e-12,5.22393822 C1.08002496e-12,8.10903964 2.32284012,10.4478764 5.18820862,10.4478764 Z M5.18820862,7.30501931 C4.06343897,7.30501931 3.14285714,6.37809771 3.14285714,5.22393822 C3.14285714,4.06977874 4.06343897,3.14285714 5.18820862,3.14285714 C6.31297826,3.14285714 7.23356009,4.06977874 7.23356009,5.22393822 C7.23356009,6.37809771 6.31297826,7.30501931 5.18820862,7.30501931 Z" id="Oval"></path>
                </g>
                <g id="Oval-Copy-4" opacity="0.8" transform="translate(0.000000, 77.000000)" fill="#01ACCD">
                    <path d="M5.18820862,10.4478764 C8.05357711,10.4478764 10.3764172,8.10903964 10.3764172,5.22393822 C10.3764172,2.33883681 8.05357711,1.42108547e-14 5.18820862,1.42108547e-14 C2.32284012,1.42108547e-14 1.08002496e-12,2.33883681 1.08002496e-12,5.22393822 C1.08002496e-12,8.10903964 2.32284012,10.4478764 5.18820862,10.4478764 Z M5.18820862,7.30501931 C4.06343897,7.30501931 3.14285714,6.37809771 3.14285714,5.22393822 C3.14285714,4.06977874 4.06343897,3.14285714 5.18820862,3.14285714 C6.31297826,3.14285714 7.23356009,4.06977874 7.23356009,5.22393822 C7.23356009,6.37809771 6.31297826,7.30501931 5.18820862,7.30501931 Z" id="Oval-Copy"></path>
                </g>
                <g id="Path-Copy-3" opacity="0.3" transform="translate(238.000000, 96.000000)" fill="#01ACCD">
                    <polygon id="Path-Copy" points="8.25 4.0625 12 4.0625 12 8.9375 8.25 8.9375 8.25 13 3.75 13 3.75 8.9375 0 8.9375 0 4.0625 3.75 4.0625 3.75 0 8.25 0"></polygon>
                </g>
                <g id="Path-2" opacity="0.4" transform="translate(129.000000, 0.000000)" fill="#01ACCD">
                    <polygon id="Path" points="8.25 4.0625 12 4.0625 12 8.9375 8.25 8.9375 8.25 13 3.75 13 3.75 8.9375 0 8.9375 0 4.0625 3.75 4.0625 3.75 0 8.25 0"></polygon>
                </g>
            </g>
        </g>
    </g>
</svg>