<?xml version="1.0" encoding="UTF-8"?>
<svg width="195px" height="209px" viewBox="0 0 195 209" version="1.1" xmlns="http://www.w3.org/2000/svg" xmlns:xlink="http://www.w3.org/1999/xlink">
    <!-- Generator: Sketch 59.1 (86144) - https://sketch.com -->
    <title>IL/ Offline-after start-small</title>
    <desc>Created with Sketch.</desc>
    <defs>
        <rect id="path-1" x="0" y="0" width="129.474581" height="109.087826" rx="11"></rect>
        <path d="M129.476154,11.3751273 L129.474581,98.0878263 C129.474581,104.162959 124.549713,109.087826 118.474581,109.087826 L11,109.087826 C4.92486775,109.087826 -3.66352781e-13,104.162959 -3.76966904e-13,98.0878263 L-0.00160335537,84.1690417 C19.3265479,82.1316769 41.0493696,75.889101 62.6476065,65.3834859 C92.5837258,50.8220839 116.196013,31.0304174 129.476154,11.3751273 Z" id="path-3"></path>
        <rect id="path-5" x="0" y="0" width="129.474581" height="109.087826" rx="11"></rect>
    </defs>
    <g id="IL/-Offline-after-start-small" stroke="none" stroke-width="1" fill="none" fill-rule="evenodd">
        <rect fill="#FFFFFF" fill-opacity="0" x="0" y="0" width="195" height="209"></rect>
        <g id="il">
            <g id="Group-3">
                <path d="M50.7488122,50.1936302 L76.9623257,5.29929708 C77.3047257,4.71288877 78.0576737,4.51508099 78.644082,4.85748105 C78.6445911,4.85777833 78.6451,4.85807598 78.6456087,4.85837399 C79.2364124,5.20448109 79.4430439,5.95882236 79.1110916,6.55769361 L53.9001861,52.040385 C53.4172959,52.9115612 52.3196083,53.2263293 51.448432,52.7434392 C51.4359205,52.7365041 51.4234919,52.7294204 51.4111489,52.7221896 C50.5306404,52.2063664 50.2342562,51.0748798 50.7488122,50.1936302 Z" id="Rectangle-Copy-11" fill="#4DA2B2"></path>
                <path d="M45.840403,53.4596465 L27.6153158,19.2722164 C27.2948414,18.6710563 27.5006016,17.9242335 28.0837406,17.5720315 C28.6441884,17.2335344 29.3729272,17.413461 29.7114243,17.9739088 C29.7164283,17.9821939 29.7213307,17.99054 29.7261302,17.9989452 L48.9138512,51.6009421 C49.4164732,52.4811458 49.125231,53.6015904 48.2576008,54.1256183 C47.4410383,54.6188025 46.3792788,54.3566526 45.8860946,53.5400901 C45.8701486,53.5136884 45.8549126,53.4868642 45.840403,53.4596465 Z" id="Rectangle-Copy-11" fill="#4DA2B2"></path>
                <g id="Group-2" transform="translate(0.000000, 46.595806)">
                    <path d="M49.8021583,0 C60.5099939,0 69.2854407,3.66911883 70.0845757,8.32701983 L168.345324,8.32714488 C183.066295,8.32714488 195,20.1330791 195,34.696437 L195,113.804313 C195,124.897302 188.076122,134.390447 178.270523,138.284869 C178.36138,138.713031 178.409075,139.157133 178.409075,139.612375 C178.409075,143.058302 175.676326,145.865962 172.259778,145.986406 L172.031018,145.990432 L161.007,145.990145 L162.350828,157.975434 C162.53766,159.642181 161.388194,161.16394 159.733878,161.439969 C158.062782,161.718797 156.454623,160.677959 156.024606,159.039242 L152.676048,146.278482 C152.650877,146.18256 152.629325,146.086539 152.611308,145.990565 L41.72764,145.990565 L41.6979528,146.134543 L41.6979528,146.134543 L41.6629002,146.278482 L38.3143424,159.039242 C37.8843259,160.677959 36.2761667,161.718797 34.6050708,161.439969 C33.0098373,161.173798 31.8840366,159.749289 31.9731781,158.153409 L31.9881203,157.975434 L33.331,145.990145 L26.0183447,145.990432 C22.5724173,145.990432 19.7647575,143.257684 19.6443138,139.841135 L19.6402878,139.612375 C19.6402878,139.491607 19.6436443,139.371624 19.6502691,139.252512 C8.32757913,136.211312 0,125.969906 0,113.804313 L0,34.696437 C0,20.1330791 11.933705,8.32714488 26.6546763,8.32714488 L29.5197408,8.32701983 C30.3188758,3.66911883 39.0943226,0 49.8021583,0 Z M168.345324,11.1028598 L67.1110985,11.1026207 C59.5695092,13.309426 40.0348074,13.309426 32.4932181,11.1026207 L26.6546763,11.1028598 C13.483281,11.1028598 2.8057554,21.6660641 2.8057554,34.696437 L2.8057554,113.804313 C2.8057554,124.69613 10.2660774,133.864151 20.407273,136.5801 C21.4467943,134.658298 23.4445422,133.331763 25.7598177,133.239462 L26.0183447,133.234318 L172.031018,133.234318 C174.103026,133.234318 175.944268,134.222349 177.109304,135.752972 C185.944545,132.298223 192.194245,123.773302 192.194245,113.804313 L192.194245,34.696437 C192.194245,21.6660641 181.516719,11.1028598 168.345324,11.1028598 Z" id="Combined-Shape" fill="#1A7080"></path>
                    <path d="M26.6546763,11.1028598 C13.483281,11.1028598 2.8057554,21.6660641 2.8057554,34.696437 L2.8057554,113.804313 C2.8057554,126.834686 13.483281,137.397891 26.6546763,137.397891 L168.345324,137.397891 C181.516719,137.397891 192.194245,126.834686 192.194245,113.804313 L192.194245,34.696437 C192.194245,21.6660641 181.516719,11.1028598 168.345324,11.1028598 L26.6546763,11.1028598 Z" id="Path" fill="#4DA2B2" fill-rule="nonzero"></path>
                </g>
                <rect id="Rectangle" stroke="#1A7080" stroke-width="2" fill="#37616A" transform="translate(167.244526, 120.019501) scale(-1, 1) translate(-167.244526, -120.019501) " x="153.29927" y="65.9517301" width="27.8905109" height="108.135542" rx="6"></rect>
                <ellipse id="Oval" fill="#4DA2B2" cx="167.244526" cy="84.0136508" rx="9.25182482" ry="9.17796186"></ellipse>
                <ellipse id="Oval-Copy" fill="#4DA2B2" cx="167.244526" cy="110.841539" rx="9.25182482" ry="9.17796186"></ellipse>
                <path d="M158.540596,107.725633 L175.67419,107.740906 C176.90909,107.742007 177.909898,108.742816 177.910999,109.977715 C177.912097,111.209771 176.914209,112.209441 175.682152,112.210539 C175.680826,112.21054 175.679501,112.21054 175.678175,112.210539 L158.544581,112.195266 C157.309682,112.194165 156.308873,111.193356 156.307772,109.958457 C156.306674,108.7264 157.304563,107.726731 158.536619,107.725633 C158.537945,107.725631 158.539271,107.725631 158.540596,107.725633 Z" id="Rectangle" fill="#1A7080" transform="translate(167.109386, 109.968086) rotate(45.000000) translate(-167.109386, -109.968086) "></path>
                <path d="M158.558189,80.7929271 L175.703404,80.8061573 C176.937666,80.8071097 177.937996,81.807439 177.938949,83.0417015 C177.939901,84.2735032 176.9421,85.2728469 175.710298,85.2737983 C175.70915,85.2737992 175.708002,85.2737992 175.706854,85.2737983 L158.561639,85.2605681 C157.327377,85.2596157 156.327047,84.2592864 156.326093,83.0250239 C156.325142,81.7932222 157.322943,80.7938785 158.554745,80.7929271 C158.555893,80.7929262 158.557041,80.7929262 158.558189,80.7929271 Z" id="Rectangle-Copy-12" fill="#1A7080" transform="translate(167.132521, 83.033363) scale(-1, 1) rotate(60.000000) translate(-167.132521, -83.033363) "></path>
                <rect id="Rectangle-Copy" fill="#4DA2B2" x="157.992701" y="129.90346" width="17.080292" height="1.41199413" rx="0.705997066"></rect>
                <rect id="Rectangle-Copy-2" fill="#4DA2B2" x="157.992701" y="135.551437" width="17.080292" height="1.41199413" rx="0.705997066"></rect>
                <rect id="Rectangle-Copy-4" fill="#4DA2B2" x="157.992701" y="144.023401" width="17.080292" height="1.41199413" rx="0.705997066"></rect>
                <rect id="Rectangle-Copy-5" fill="#4DA2B2" x="157.992701" y="152.495366" width="17.080292" height="1.41199413" rx="0.705997066"></rect>
                <rect id="Rectangle-Copy-6" fill="#4DA2B2" x="157.992701" y="159.555337" width="17.080292" height="1.41199413" rx="0.705997066"></rect>
                <rect id="Rectangle-Copy-7" fill="#4DA2B2" x="157.992701" y="166.615308" width="17.080292" height="1.41199413" rx="0.705997066"></rect>
                <ellipse id="Oval" fill="#1A7080" cx="80.419708" cy="3.52998533" rx="3.55839416" ry="3.52998533"></ellipse>
                <ellipse id="Oval-Copy-2" fill="#1A7080" cx="27.7554745" cy="17.6499266" rx="3.55839416" ry="3.52998533"></ellipse>
                <g id="Group" transform="translate(14.233577, 64.951730)">
                    <mask id="mask-2" fill="white">
                        <use xlink:href="#path-1"></use>
                    </mask>
                    <use id="Mask" fill="#000000" opacity="0.780436198" xlink:href="#path-1"></use>
                    <g opacity="0.326334635" mask="url(#mask-2)">
                        <g transform="translate(2.815773, 0.000000)">
                            <rect id="Rectangle" fill="#333333" x="88.8131911" y="0.072203746" width="18.1354399" height="108.209347"></rect>
                            <rect id="Rectangle-Copy-18" fill="#37616A" x="106.948631" y="0.072203746" width="18.1354399" height="108.209347"></rect>
                            <rect id="Rectangle-Copy-13" fill="#37616A" x="70.6777512" y="0.072203746" width="18.1354399" height="108.209347"></rect>
                            <rect id="Rectangle-Copy-14" fill="#333333" x="52.5423113" y="0.072203746" width="18.1354399" height="108.209347"></rect>
                            <rect id="Rectangle-Copy-15" fill="#37616A" x="35.5403365" y="0.072203746" width="18.1354399" height="108.209347"></rect>
                            <rect id="Rectangle-Copy-16" fill="#333333" x="17.4048966" y="0.072203746" width="18.1354399" height="108.209347"></rect>
                            <rect id="Rectangle-Copy-17" fill="#37616A" x="2.48689958e-14" y="-1.77635684e-13" width="18.1354399" height="108.209347"></rect>
                        </g>
                    </g>
                    <mask id="mask-4" fill="white">
                        <use xlink:href="#path-3"></use>
                    </mask>
                    <use id="Combined-Shape" fill="#FFFFFF" opacity="0.0805580357" xlink:href="#path-3"></use>
                    <mask id="mask-6" fill="white">
                        <use xlink:href="#path-5"></use>
                    </mask>
                    <rect stroke="#1A7080" stroke-width="2" x="1" y="1" width="127.474581" height="107.087826" rx="11"></rect>
                </g>
            </g>
        </g>
    </g>
</svg>